The hot-headed young D'Artagnan along with three former legendary but now down on their luck Musketeers must unite and defeat a beautiful double agent and her villainous employer from seizing the French throne and engulfing Europe in war.

Director:
Paul W.S. Anderson
Writers:
Alex Litvak (screenplay), Andrew Davies (screenplay), and 1 more credit »
Stars:
Logan Lerman, Matthew Macfadyen and Ray Stevenson 

medua ibfo:

General
Unique ID                        : 203100099475537180300926314416644970440 (0x98CBA80529FBB319965FBA5E7D2257C8)
Complete name                    : E:\torrent2\The Three Musketeers (2011))blurayrip.MKV.1080p.AVC.DTS 5.1.ACB-team\The Three Musketeers (2011))blurayrip.MKV.1080p.AVC.DTS 5.1.ACB-team.mkv
Format                           : Matroska
Format version                   : Version 2
File size                        : 12.0 GiB
Duration                         : 1h 50mn
Overall bit rate mode            : Variable
Overall bit rate                 : 15.6 Mbps
Movie name                       : movie
Encoded date                     : UTC 2012-02-05 19:49:57
Writing application              : mkvmerge v3.2.0 ('Beginnings') built on Feb 12 2010 16:46:17
Writing library                  : libebml v0.7.9 + libmatroska v0.8.1

Video
ID                               : 1
Format                           : AVC
Format/Info                      : Advanced Video Codec
Format profile                   : High@L4.1
Format settings, CABAC           : Yes
Format settings, ReFrames        : 2 frames
Format settings, GOP             : M=4, N=24
Muxing mode                      : Container profile=Unknown@0.0
Codec ID                         : V_MPEG4/ISO/AVC
Duration                         : 1h 50mn
Bit rate mode                    : Variable
Bit rate                         : 14.2 Mbps
Maximum bit rate                 : 35.0 Mbps
Width                            : 1 920 pixels
Height                           : 1 080 pixels
Display aspect ratio             : 16:9
Frame rate                       : 23.976 fps
Color space                      : YUV
Chroma subsampling               : 4:2:0
Bit depth                        : 8 bits
Scan type                        : Progressive
Bits/(Pixel*Frame)               : 0.285
Stream size                      : 10.6 GiB (88%)
Writing library                  : x264 core 120 r2120 0c7dab9
Encoding settings                : cabac=1 / ref=1 / deblock=1:0:0 / analyse=0x3:0x3 / me=dia / subme=1 / psy=1 / psy_rd=1.00:0.00 / mixed_ref=0 / me_range=16 / chroma_me=1 / trellis=0 / 8x8dct=1 / cqm=0 / deadzone=21,11 / fast_pskip=1 / chroma_qp_offset=0 / threads=3 / sliced_threads=0 / slices=4 / nr=0 / decimate=1 / interlaced=0 / bluray_compat=1 / constrained_intra=0 / bframes=3 / b_pyramid=0 / b_adapt=1 / b_bias=0 / direct=1 / weightb=1 / open_gop=0 / weightp=1 / keyint=24 / keyint_min=1 / scenecut=40 / intra_refresh=0 / rc_lookahead=0 / rc=abr / mbtree=0 / bitrate=14187 / ratetol=1.0 / qcomp=0.60 / qpmin=0 / qpmax=69 / qpstep=4 / vbv_maxrate=35000 / vbv_bufsize=30000 / nal_hrd=vbr / ip_ratio=1.10 / pb_ratio=1.10 / aq=1:1.00
Default                          : No
Forced                           : No

Audio
ID                               : 2
Format                           : DTS
Format/Info                      : Digital Theater Systems
Codec ID                         : A_DTS
Duration                         : 1h 50mn
Bit rate mode                    : Constant
Bit rate                         : 1 510 Kbps
Channel(s)                       : 6 channels
Channel positions                : Front: L C R, Side: L R, LFE
Sampling rate                    : 48.0 KHz
Bit depth                        : 24 bits
Compression mode                 : Lossy
Stream size                      : 1.17 GiB (10%)
Language                         : English
Default                          : Yes
Forced                           : No

Text #1
ID                               : 3
Format                           : VobSub
Muxing mode                      : zlib
Codec ID                         : S_VOBSUB
Codec ID/Info                    : The same subtitle format used on DVDs
Language                         : German
Default                          : Yes
Forced                           : No

Text #2
ID                               : 4
Format                           : UTF-8
Codec ID                         : S_TEXT/UTF8
Codec ID/Info                    : UTF-8 Plain Text
Language                         : Dutch
Default                          : No
Forced                           : No

Menu
00:00:00.000                     : en:00:00:00.000
00:06:09.786                     : en:00:06:09.786
00:12:20.406                     : en:00:12:20.406
00:17:31.592                     : en:00:17:31.592
00:23:52.180                     : en:00:23:52.180
00:31:28.678                     : en:00:31:28.678
00:35:56.487                     : en:00:35:56.487
00:42:31.548                     : en:00:42:31.548
00:47:04.613                     : en:00:47:04.613
00:53:17.319                     : en:00:53:17.319
00:59:14.634                     : en:00:59:14.634
01:04:40.042                     : en:01:04:40.042
01:08:33.109                     : en:01:08:33.109
01:14:24.418                     : en:01:14:24.418
01:21:04.609                     : en:01:21:04.609
01:27:36.918                     : en:01:27:36.918
01:36:09.680                     : en:01:36:09.680
01:42:27.432                     : en:01:42:27.432

